Atma-ExtraBold.ufo
<glyph name="parenright" format="1">
  <advance width="444"/>
  <unicode hex="0029"/>
  <outline>
    <contour>
      <point x="190" y="330" type="curve" smooth="yes"/>
      <point x="190" y="171"/>
      <point x="111" y="19"/>
      <point x="-45" y="-97" type="curve"/>
      <point x="-7" y="-144"/>
      <point x="31" y="-169"/>
      <point x="69" y="-183" type="curve"/>
      <point x="238" y="-41"/>
      <point x="337" y="127"/>
      <point x="337" y="336" type="curve" smooth="yes"/>
      <point x="337" y="512"/>
      <point x="240" y="685"/>
      <point x="88" y="817" type="curve"/>
      <point x="17" y="784"/>
      <point x="-5" y="764"/>
      <point x="-26" y="735" type="curve"/>
      <point x="126" y="588"/>
      <point x="190" y="478"/>
    </contour>
  </outline>
</glyph>
<glyph name="asterisk" format="1">
  <advance width="514"/>
  <unicode hex="002A"/>
  <outline>
    <contour>
      <point x="450" y="398" type="curve" smooth="yes"/>
      <point x="464" y="422"/>
      <point x="469" y="448"/>
      <point x="468" y="464" type="curve"/>
      <point x="404" y="491"/>
      <point x="344" y="515"/>
      <point x="271" y="543" type="curve"/>
      <point x="258" y="522"/>
      <point x="247" y="490"/>
      <point x="243" y="477" type="curve"/>
      <point x="310" y="426"/>
      <point x="369" y="385"/>
      <point x="418" y="354" type="curve"/>
      <point x="431" y="368"/>
      <point x="441" y="381"/>
    </contour>
    <contour>
      <point x="451" y="621" type="curve" smooth="yes"/>
      <point x="437" y="645"/>
      <point x="417" y="663"/>
      <point x="403" y="670" type="curve"/>
      <point x="352" y="620"/>
      <point x="312" y="585"/>
      <point x="235" y="538" type="curve"/>
      <point x="247" y="518"/>
      <point x="268" y="491"/>
      <point x="279" y="482" type="curve"/>
      <point x="350" y="510"/>
      <point x="429" y="544"/>
      <point x="472" y="571" type="curve"/>
      <point x="467" y="589"/>
      <point x="461" y="605"/>
    </contour>
    <contour>
      <point x="311" y="727" type="curve"/>
      <point x="293" y="732"/>
      <point x="277" y="734"/>
      <point x="258" y="734" type="curve" smooth="yes"/>
      <point x="230" y="734"/>
      <point x="205" y="725"/>
      <point x="191" y="716" type="curve"/>
      <point x="200" y="646"/>
      <point x="209" y="584"/>
      <point x="222" y="505" type="curve"/>
      <point x="246" y="505"/>
      <point x="279" y="511"/>
      <point x="292" y="515" type="curve"/>
      <point x="304" y="598"/>
      <point x="309" y="669"/>
    </contour>
    <contour>
      <point x="323" y="304" type="curve"/>
      <point x="305" y="373"/>
      <point x="294" y="425"/>
      <point x="292" y="515" type="curve"/>
      <point x="269" y="515"/>
      <point x="235" y="509"/>
      <point x="222" y="505" type="curve"/>
      <point x="211" y="430"/>
      <point x="201" y="345"/>
      <point x="203" y="293" type="curve"/>
      <point x="221" y="288"/>
      <point x="237" y="286"/>
      <point x="256" y="286" type="curve" smooth="yes"/>
      <point x="284" y="286"/>
      <point x="309" y="295"/>
    </contour>
    <contour>
      <point x="96" y="666" type="curve"/>
      <point x="83" y="652"/>
      <point x="73" y="639"/>
      <point x="64" y="622" type="curve" smooth="yes"/>
      <point x="50" y="598"/>
      <point x="45" y="572"/>
      <point x="46" y="556" type="curve"/>
      <point x="115" y="537"/>
      <point x="164" y="520"/>
      <point x="243" y="477" type="curve"/>
      <point x="255" y="496"/>
      <point x="267" y="530"/>
      <point x="271" y="543" type="curve"/>
      <point x="211" y="590"/>
      <point x="142" y="641"/>
    </contour>
    <contour>
      <point x="42" y="449" type="curve"/>
      <point x="47" y="431"/>
      <point x="53" y="415"/>
      <point x="63" y="399" type="curve" smooth="yes"/>
      <point x="77" y="375"/>
      <point x="97" y="357"/>
      <point x="111" y="350" type="curve"/>
      <point x="168" y="392"/>
      <point x="217" y="432"/>
      <point x="279" y="482" type="curve"/>
      <point x="267" y="503"/>
      <point x="246" y="529"/>
      <point x="235" y="538" type="curve"/>
      <point x="157" y="506"/>
      <point x="93" y="476"/>
    </contour>
  </outline>
</glyph>
<glyph name="plus" format="1">
  <advance width="501"/>
  <unicode hex="002B"/>
  <outline>
    <contour>
      <point x="47" y="405" type="curve"/>
      <point x="41" y="361"/>
      <point x="39" y="327"/>
      <point x="39" y="284" type="curve"/>
      <point x="154" y="266"/>
      <point x="330" y="263"/>
      <point x="461" y="284" type="curve"/>
      <point x="472" y="322"/>
      <point x="478" y="362"/>
      <point x="478" y="404" type="curve"/>
      <point x="330" y="388"/>
      <point x="185" y="387"/>
    </contour>
    <contour>
      <point x="189" y="119" type="curve"/>
      <point x="231" y="116"/>
      <point x="271" y="118"/>
      <point x="309" y="122" type="curve"/>
      <point x="330" y="253"/>
      <point x="327" y="429"/>
      <point x="309" y="544" type="curve"/>
      <point x="266" y="544"/>
      <point x="232" y="542"/>
      <point x="188" y="536" type="curve"/>
      <point x="205" y="402"/>
      <point x="204" y="262"/>
    </contour>
  </outline>
</glyph>
<glyph name="hyphen" format="1">
  <advance width="386"/>
  <unicode hex="002D"/>
  <outline>
    <contour>
      <point x="25" y="304"/>
      <point x="23" y="259"/>
      <point x="26" y="209" type="curve"/>
      <point x="74" y="181"/>
      <point x="251" y="179"/>
      <point x="342" y="203" type="curve"/>
      <point x="359" y="250"/>
      <point x="361" y="311"/>
      <point x="361" y="353" type="curve"/>
      <point x="317" y="348"/>
      <point x="273" y="347"/>
      <point x="184" y="347" type="curve" smooth="yes"/>
      <point x="156" y="347"/>
      <point x="84" y="350"/>
      <point x="44" y="360" type="curve"/>
    </contour>
  </outline>
</glyph>
<glyph name="slash" format="1">
  <advance width="464"/>
  <unicode hex="002F"/>
  <outline>
    <contour>
      <point x="208" y="42"/>
      <point x="398" y="424"/>
      <point x="509" y="683" type="curve"/>
      <point x="468" y="727"/>
      <point x="406" y="757"/>
      <point x="367" y="760" type="curve"/>
      <point x="302" y="576"/>
      <point x="52" y="39"/>
      <point x="-52" y="-154" type="curve"/>
      <point x="-26" y="-176"/>
      <point x="29" y="-200"/>
      <point x="62" y="-211" type="curve"/>
    </contour>
  </outline>
</glyph>
<glyph name="zero" format="1">
  <advance width="639"/>
  <unicode hex="0030"/>
  <outline>
    <contour>
      <point x="363" y="673" type="curve" smooth="yes"/>
      <point x="162" y="673"/>
      <point x="30" y="510"/>
      <point x="30" y="293" type="curve" smooth="yes"/>
      <point x="30" y="134"/>
      <point x="96" y="-20"/>
      <point x="274" y="-20" type="curve" smooth="yes"/>
      <point x="532" y="-20"/>
      <point x="609" y="250"/>
      <point x="609" y="402" type="curve" smooth="yes"/>
      <point x="609" y="579"/>
      <point x="517" y="673"/>
    </contour>
    <contour>
      <point x="328" y="543" type="curve" smooth="yes"/>
      <point x="372" y="543"/>
      <point x="400" y="489"/>
      <point x="400" y="347" type="curve" smooth="yes"/>
      <point x="400" y="250"/>
      <point x="382" y="110"/>
      <point x="317" y="110" type="curve" smooth="yes"/>
      <point x="258" y="110"/>
      <point x="235" y="229"/>
      <point x="235" y="321" type="curve" smooth="yes"/>
      <point x="235" y="454"/>
      <point x="271" y="543"/>
    </contour>
  </outline>
</glyph>
<glyph name="greater" format="1">
  <advance width="501"/>
  <unicode hex="003E"/>
  <outline>
    <contour>
      <point x="405" y="413" type="line"/>
      <point x="294" y="329"/>
      <point x="167" y="259"/>
      <point x="29" y="200" type="curve"/>
      <point x="38" y="156"/>
      <point x="47" y="127"/>
      <point x="66" y="90" type="curve"/>
      <point x="190" y="136"/>
      <point x="380" y="239"/>
      <point x="472" y="312" type="curve"/>
      <point x="472" y="376" type="line"/>
      <point x="380" y="449"/>
      <point x="190" y="552"/>
      <point x="66" y="598" type="curve"/>
      <point x="47" y="561"/>
      <point x="38" y="532"/>
      <point x="29" y="488" type="curve"/>
      <point x="167" y="429"/>
      <point x="294" y="359"/>
      <point x="405" y="275" type="curve"/>
    </contour>
  </outline>
</glyph>
<glyph name="question" format="1">
  <advance width="553"/>
  <unicode hex="003F"/>
  <outline>
    <contour>
      <point x="289" y="374" type="line"/>
      <point x="434" y="389"/>
      <point x="528" y="459"/>
      <point x="528" y="570" type="curve" smooth="yes"/>
      <point x="528" y="683"/>
      <point x="411" y="763"/>
      <point x="273" y="763" type="curve" smooth="yes"/>
      <point x="106" y="763"/>
      <point x="23" y="681"/>
      <point x="15" y="547" type="curve"/>
      <point x="66" y="522"/>
      <point x="126" y="512"/>
      <point x="198" y="512" type="curve"/>
      <point x="198" y="607"/>
      <point x="230" y="659"/>
      <point x="267" y="659" type="curve" smooth="yes"/>
      <point x="309" y="659"/>
      <point x="319" y="617"/>
      <point x="319" y="571" type="curve" smooth="yes"/>
      <point x="319" y="490"/>
      <point x="269" y="427"/>
      <point x="160" y="408" type="curve"/>
    </contour>
    <contour>
      <point x="160" y="408" type="line"/>
      <point x="162" y="360"/>
      <point x="172" y="296"/>
      <point x="184" y="239" type="curve"/>
      <point x="235" y="239"/>
      <point x="295" y="244"/>
      <point x="330" y="254" type="curve"/>
      <point x="332" y="319"/>
      <point x="335" y="393"/>
      <point x="338" y="435" type="curve"/>
    </contour>
    <contour>
      <point x="365" y="-12" type="curve"/>
      <point x="358" y="46"/>
      <point x="354" y="94"/>
      <point x="349" y="156" type="curve"/>
      <point x="287" y="156"/>
      <point x="245" y="158"/>
      <point x="174" y="158" type="curve"/>
      <point x="172" y="108"/>
      <point x="172" y="57"/>
      <point x="178" y="-5" type="curve"/>
      <point x="200" y="-16"/>
      <point x="235" y="-24"/>
      <point x="276" y="-23" type="curve" smooth="yes"/>
      <point x="307" y="-22"/>
      <point x="331" y="-20"/>
    </contour>
  </outline>
</glyph>
<glyph name="C" format="1">
  <advance width="618"/>
  <unicode hex="0043"/>
  <outline>
    <contour>
      <point x="589" y="207" type="curve"/>
      <point x="563" y="227"/>
      <point x="494" y="241"/>
      <point x="437" y="235" type="curve"/>
      <point x="448" y="146"/>
      <point x="418" y="91"/>
      <point x="353" y="91" type="curve" smooth="yes"/>
      <point x="288" y="91"/>
      <point x="255" y="173"/>
      <point x="255" y="310" type="curve" smooth="yes"/>
      <point x="255" y="448"/>
      <point x="295" y="573"/>
      <point x="353" y="573" type="curve" smooth="yes"/>
      <point x="387" y="573"/>
      <point x="416" y="535"/>
      <point x="416" y="438" type="curve"/>
      <point x="510" y="438"/>
      <point x="546" y="450"/>
      <point x="603" y="475" type="curve"/>
      <point x="591" y="614"/>
      <point x="510" y="693"/>
      <point x="387" y="693" type="curve" smooth="yes"/>
      <point x="174" y="693"/>
      <point x="35" y="490"/>
      <point x="35" y="261" type="curve" smooth="yes"/>
      <point x="35" y="51"/>
      <point x="153" y="-35"/>
      <point x="299" y="-35" type="curve" smooth="yes"/>
      <point x="483" y="-35"/>
      <point x="579" y="63"/>
    </contour>
  </outline>
</glyph>
<glyph name="F" format="1">
  <advance width="563"/>
  <unicode hex="0046"/>
  <outline>
    <contour>
      <point x="494" y="269" type="curve"/>
      <point x="494" y="333"/>
      <point x="491" y="380"/>
      <point x="478" y="430" type="curve"/>
      <point x="388" y="430"/>
      <point x="306" y="414"/>
      <point x="225" y="387" type="curve"/>
      <point x="234" y="251" type="line"/>
      <point x="320" y="264"/>
      <point x="409" y="269"/>
    </contour>
    <contour>
      <point x="298" y="-65" type="curve"/>
      <point x="306" y="56"/>
      <point x="311" y="197"/>
      <point x="311" y="333" type="curve" smooth="yes"/>
      <point x="311" y="484"/>
      <point x="305" y="616"/>
      <point x="293" y="713" type="curve"/>
      <point x="194" y="713"/>
      <point x="128" y="710"/>
      <point x="55" y="715" type="curve"/>
      <point x="93" y="497"/>
      <point x="113" y="114"/>
      <point x="113" y="-86" type="curve"/>
      <point x="195" y="-86"/>
      <point x="247" y="-78"/>
    </contour>
    <contour>
      <point x="536" y="603" type="curve"/>
      <point x="541" y="625"/>
      <point x="547" y="656"/>
      <point x="547" y="688" type="curve" smooth="yes"/>
      <point x="547" y="722"/>
      <point x="544" y="750"/>
      <point x="537" y="774" type="curve"/>
      <point x="358" y="748"/>
      <point x="230" y="725"/>
      <point x="55" y="715" type="curve"/>
      <point x="74" y="680"/>
      <point x="82" y="627"/>
      <point x="82" y="571" type="curve"/>
      <point x="253" y="571"/>
      <point x="389" y="588"/>
    </contour>
  </outline>
</glyph>
<glyph name="J" format="1">
  <advance width="535"/>
  <unicode hex="004A"/>
  <outline>
    <contour>
      <point x="229" y="-88" type="curve"/>
      <point x="335" y="-88"/>
      <point x="422" y="-15"/>
      <point x="453" y="152" type="curve" smooth="yes"/>
      <point x="476" y="274"/>
      <point x="485" y="376"/>
      <point x="485" y="563" type="curve" smooth="yes"/>
      <point x="485" y="620"/>
      <point x="484" y="672"/>
      <point x="482" y="714" type="curve"/>
      <point x="449" y="723"/>
      <point x="419" y="726"/>
      <point x="385" y="726" type="curve" smooth="yes"/>
      <point x="327" y="726"/>
      <point x="276" y="711"/>
      <point x="248" y="692" type="curve"/>
      <point x="271" y="514"/>
      <point x="278" y="316"/>
      <point x="278" y="218" type="curve" smooth="yes"/>
      <point x="278" y="68"/>
      <point x="253" y="41"/>
      <point x="222" y="41" type="curve" smooth="yes"/>
      <point x="187" y="41"/>
      <point x="175" y="88"/>
      <point x="159" y="190" type="curve"/>
      <point x="104" y="183"/>
      <point x="53" y="164"/>
      <point x="10" y="127" type="curve"/>
      <point x="23" y="13"/>
      <point x="117" y="-88"/>
    </contour>
  </outline>
</glyph>
<glyph name="N" format="1">
  <advance width="710"/>
  <unicode hex="004E"/>
  <outline>
    <contour>
      <point x="262" y="-25" type="curve"/>
      <point x="262" y="27"/>
      <point x="262" y="95"/>
      <point x="262" y="169" type="curve" smooth="yes"/>
      <point x="262" y="350"/>
      <point x="263" y="565"/>
      <point x="273" y="676" type="curve"/>
      <point x="168" y="695"/>
      <point x="103.690909091" y="683.127272727"/>
      <point x="60" y="654" type="curve"/>
      <point x="60" y="439"/>
      <point x="82" y="143"/>
      <point x="98" y="-45" type="curve"/>
      <point x="155" y="-45"/>
      <point x="229" y="-35"/>
    </contour>
    <contour>
      <point x="635" y="33" type="curve"/>
      <point x="646" y="177"/>
      <point x="655" y="366"/>
      <point x="655" y="549" type="curve" smooth="yes"/>
      <point x="655" y="622"/>
      <point x="653" y="694"/>
      <point x="650" y="762" type="curve"/>
      <point x="575" y="762"/>
      <point x="506" y="748"/>
      <point x="446" y="729" type="curve"/>
      <point x="460" y="637"/>
      <point x="465" y="494"/>
      <point x="465" y="351" type="curve" smooth="yes"/>
      <point x="465" y="225"/>
      <point x="461" y="100"/>
      <point x="454" y="12" type="curve"/>
      <point x="521" y="15"/>
      <point x="580" y="24"/>
    </contour>
    <contour>
      <point x="560" y="85" type="line"/>
      <point x="474" y="379"/>
      <point x="389" y="549"/>
      <point x="275" y="712" type="curve"/>
      <point x="188" y="709"/>
      <point x="111" y="686"/>
      <point x="60" y="654" type="curve"/>
      <point x="270" y="441"/>
      <point x="338" y="292"/>
      <point x="454" y="12" type="curve"/>
    </contour>
  </outline>
</glyph>
<glyph name="T" format="1">
  <advance width="581"/>
  <unicode hex="0054"/>
  <outline>
    <contour>
      <point x="554" y="623" type="curve"/>
      <point x="559" y="645"/>
      <point x="565" y="676"/>
      <point x="565" y="708" type="curve" smooth="yes"/>
      <point x="565" y="742"/>
      <point x="562" y="770"/>
      <point x="555" y="794" type="curve"/>
      <point x="341" y="794"/>
      <point x="190" y="777"/>
      <point x="12" y="736" type="curve"/>
      <point x="12" y="690"/>
      <point x="21" y="640"/>
      <point x="39" y="592" type="curve"/>
      <point x="224" y="611"/>
      <point x="367" y="623"/>
    </contour>
    <contour>
      <point x="400" y="44" type="curve"/>
      <point x="409" y="138"/>
      <point x="417" y="247"/>
      <point x="417" y="353" type="curve" smooth="yes"/>
      <point x="417" y="504"/>
      <point x="411" y="636"/>
      <point x="399" y="733" type="curve"/>
      <point x="305" y="733"/>
      <point x="245" y="726"/>
      <point x="173" y="711" type="curve"/>
      <point x="206" y="524"/>
      <point x="218" y="195"/>
      <point x="218" y="23" type="curve"/>
      <point x="299" y="23"/>
      <point x="350" y="31"/>
    </contour>
  </outline>
</glyph>
<glyph name="c" format="1">
  <advance width="521"/>
  <unicode hex="0063"/>
  <outline>
    <contour>
      <point x="338" y="342" type="curve"/>
      <point x="406" y="342"/>
      <point x="464" y="349"/>
      <point x="511" y="372" type="curve"/>
      <point x="511" y="468"/>
      <point x="449" y="543"/>
      <point x="313" y="543" type="curve" smooth="yes"/>
      <point x="127" y="543"/>
      <point x="25" y="355"/>
      <point x="25" y="203" type="curve" smooth="yes"/>
      <point x="25" y="82"/>
      <point x="92" y="-25"/>
      <point x="246" y="-25" type="curve" smooth="yes"/>
      <point x="415" y="-25"/>
      <point x="489" y="79"/>
      <point x="500" y="114" type="curve"/>
      <point x="476" y="149"/>
      <point x="434" y="176"/>
      <point x="397" y="183" type="curve"/>
      <point x="374" y="150"/>
      <point x="332" y="86"/>
      <point x="283" y="86" type="curve" smooth="yes"/>
      <point x="242" y="86"/>
      <point x="226" y="143"/>
      <point x="226" y="210" type="curve" smooth="yes"/>
      <point x="226" y="326"/>
      <point x="259" y="446"/>
      <point x="299" y="446" type="curve" smooth="yes"/>
      <point x="329" y="446"/>
      <point x="338" y="403"/>
    </contour>
    <contour>
      <point x="318" y="560" type="move" name="top"/>
    </contour>
  </outline>
</glyph>
<glyph name="r" format="1">
  <advance width="517"/>
  <unicode hex="0072"/>
  <outline>
    <contour>
      <point x="270" y="-1" type="curve"/>
      <point x="235" y="221"/>
      <point x="243" y="434"/>
      <point x="264" y="526" type="curve"/>
      <point x="232" y="539"/>
      <point x="191" y="545"/>
      <point x="148" y="545" type="curve" smooth="yes"/>
      <point x="112" y="545"/>
      <point x="76" y="541"/>
      <point x="45" y="531" type="curve"/>
      <point x="32" y="369"/>
      <point x="54" y="143"/>
      <point x="87" y="-1" type="curve"/>
      <point x="103" y="-7"/>
      <point x="118" y="-10"/>
      <point x="146" y="-13" type="curve" smooth="yes"/>
      <point x="201" y="-17"/>
      <point x="241" y="-11"/>
    </contour>
    <contour>
      <point x="508" y="357" type="curve"/>
      <point x="509" y="369"/>
      <point x="509" y="381"/>
      <point x="509" y="392" type="curve" smooth="yes"/>
      <point x="509" y="514"/>
      <point x="452" y="567"/>
      <point x="387" y="567" type="curve" smooth="yes"/>
      <point x="307" y="567"/>
      <point x="219" y="450"/>
      <point x="213" y="255" type="curve"/>
      <point x="247" y="178" type="line"/>
      <point x="259" y="358"/>
      <point x="286" y="424"/>
      <point x="308" y="424" type="curve" smooth="yes"/>
      <point x="324" y="424"/>
      <point x="332" y="404"/>
      <point x="332" y="372" type="curve" smooth="yes"/>
      <point x="332" y="362"/>
      <point x="331" y="352"/>
      <point x="330" y="341" type="curve"/>
      <point x="395" y="337"/>
      <point x="463" y="341"/>
    </contour>
    <contour>
      <point x="226" y="560" type="move" name="top"/>
    </contour>
  </outline>
</glyph>
<glyph name="u" format="1">
  <advance width="549"/>
  <unicode hex="0075"/>
  <outline>
    <contour>
      <point x="62" y="500"/>
      <point x="30.0" y="382.744360902"/>
      <point x="30" y="265" type="curve" smooth="yes"/>
      <point x="30" y="128"/>
      <point x="77" y="-10"/>
      <point x="246" y="-10" type="curve" smooth="yes"/>
      <point x="473" y="-10"/>
      <point x="519" y="203"/>
      <point x="519" y="382" type="curve" smooth="yes"/>
      <point x="519" y="433"/>
      <point x="516" y="485"/>
      <point x="509" y="519" type="curve"/>
      <point x="452" y="519"/>
      <point x="365" y="509"/>
      <point x="306" y="484" type="curve"/>
      <point x="310" y="466"/>
      <point x="318" y="396"/>
      <point x="318" y="323" type="curve" smooth="yes"/>
      <point x="318" y="221"/>
      <point x="307" y="110"/>
      <point x="277" y="110" type="curve" smooth="yes"/>
      <point x="247" y="110"/>
      <point x="235.0" y="198.4"/>
      <point x="235" y="305" type="curve" smooth="yes"/>
      <point x="235.0" y="375.728888889"/>
      <point x="242" y="453"/>
      <point x="254" y="523" type="curve"/>
      <point x="239" y="532"/>
      <point x="210" y="538"/>
      <point x="166" y="538" type="curve" smooth="yes"/>
      <point x="131" y="538"/>
      <point x="96.2571701177" y="531.064292529"/>
      <point x="76" y="526" type="curve"/>
    </contour>
    <contour>
      <point x="301" y="560" type="move" name="top"/>
    </contour>
  </outline>
</glyph>
<glyph name="w" format="1">
  <advance width="816"/>
  <unicode hex="0077"/>
  <outline>
    <contour>
      <point x="533" y="527" type="curve"/>
      <point x="565" y="422"/>
      <point x="586" y="314"/>
      <point x="609" y="173" type="curve"/>
      <point x="596" y="173" type="line"/>
      <point x="631" y="306"/>
      <point x="645" y="415"/>
      <point x="656" y="521" type="curve"/>
      <point x="729" y="516"/>
      <point x="773" y="505"/>
      <point x="821" y="477" type="curve"/>
      <point x="777" y="318"/>
      <point x="715" y="129"/>
      <point x="629" y="-8" type="curve"/>
      <point x="595" y="-22"/>
      <point x="529" y="-34"/>
      <point x="476" y="-37" type="curve"/>
      <point x="458" y="80"/>
      <point x="435" y="203"/>
      <point x="402" y="347" type="curve"/>
      <point x="434" y="346" type="line"/>
      <point x="389" y="223"/>
      <point x="350" y="118"/>
      <point x="303" y="21" type="curve"/>
      <point x="260" y="8"/>
      <point x="185" y="-2"/>
      <point x="134" y="-3" type="curve"/>
      <point x="73" y="162"/>
      <point x="30" y="329"/>
      <point x="-2" y="513" type="curve"/>
      <point x="70" y="535"/>
      <point x="144" y="547"/>
      <point x="222" y="550" type="curve"/>
      <point x="228" y="424"/>
      <point x="235" y="303"/>
      <point x="265" y="155" type="curve"/>
      <point x="250" y="156" type="line"/>
      <point x="294" y="290"/>
      <point x="323" y="396"/>
      <point x="346" y="503" type="curve"/>
      <point x="404" y="516"/>
      <point x="477" y="529"/>
    </contour>
    <contour>
      <point x="442" y="560" type="move" name="top"/>
    </contour>
  </outline>
</glyph>
<glyph name="z" format="1">
  <advance width="551"/>
  <unicode hex="007A"/>
  <outline>
    <contour>
      <point x="454" y="-47" type="curve"/>
      <point x="473" y="-1"/>
      <point x="483" y="58"/>
      <point x="483" y="120" type="curve"/>
      <point x="382.729674522" y="95.4239398339"/>
      <point x="310.167067727" y="91.9460902273"/>
      <point x="210" y="89" type="curve"/>
      <point x="281.473142826" y="184.619474862"/>
      <point x="419" y="308"/>
      <point x="492" y="370" type="curve"/>
      <point x="509" y="406"/>
      <point x="519" y="454"/>
      <point x="524" y="494" type="curve"/>
      <point x="390" y="544"/>
      <point x="235" y="563"/>
      <point x="87" y="567" type="curve"/>
      <point x="58" y="513"/>
      <point x="49" y="465"/>
      <point x="49" y="403" type="curve"/>
      <point x="134" y="412"/>
      <point x="248" y="416"/>
      <point x="319" y="416" type="curve"/>
      <point x="227" y="349"/>
      <point x="120.652858629" y="250.94995894"/>
      <point x="24" y="134" type="curve"/>
      <point x="14" y="104"/>
      <point x="8" y="59"/>
      <point x="8" y="25" type="curve"/>
      <point x="116.949271366" y="-22.1131984285"/>
      <point x="312.585287895" y="-46.0110859293"/>
    </contour>
    <contour>
      <point x="302" y="560" type="move" name="top"/>
    </contour>
  </outline>
</glyph>
<glyph name="degree" format="1">
  <advance width="285"/>
  <unicode hex="00B0"/>
  <outline>
    <contour>
      <point x="153" y="751" type="curve" smooth="yes"/>
      <point x="58" y="751"/>
      <point x="10" y="701"/>
      <point x="10" y="632" type="curve" smooth="yes"/>
      <point x="10" y="558"/>
      <point x="59" y="512"/>
      <point x="136" y="512" type="curve" smooth="yes"/>
      <point x="231" y="512"/>
      <point x="275" y="562"/>
      <point x="275" y="649" type="curve" smooth="yes"/>
      <point x="275" y="711"/>
      <point x="229" y="751"/>
    </contour>
    <contour>
      <point x="145" y="695" type="curve" smooth="yes"/>
      <point x="164" y="695"/>
      <point x="179" y="680"/>
      <point x="179" y="639" type="curve" smooth="yes"/>
      <point x="179" y="599"/>
      <point x="165" y="572"/>
      <point x="141" y="572" type="curve"/>
      <point x="119" y="572"/>
      <point x="106" y="592"/>
      <point x="106" y="628" type="curve" smooth="yes"/>
      <point x="106" y="672"/>
      <point x="123" y="695"/>
    </contour>
  </outline>
</glyph>
<glyph name="twosuperior" format="1">
  <advance width="399"/>
  <unicode hex="00B2"/>
  <outline>
    <contour>
      <point x="389" y="567" type="curve" smooth="yes"/>
      <point x="389" y="647"/>
      <point x="318" y="702"/>
      <point x="213" y="702" type="curve" smooth="yes"/>
      <point x="109" y="702"/>
      <point x="45" y="660"/>
      <point x="17" y="566" type="curve"/>
      <point x="57" y="547"/>
      <point x="104" y="540"/>
      <point x="162" y="540" type="curve"/>
      <point x="175" y="605"/>
      <point x="185" y="622"/>
      <point x="205" y="622" type="curve" smooth="yes"/>
      <point x="218" y="622"/>
      <point x="226" y="609"/>
      <point x="226" y="585" type="curve" smooth="yes"/>
      <point x="226" y="527"/>
      <point x="162" y="463"/>
      <point x="19" y="379" type="curve"/>
      <point x="10" y="353"/>
      <point x="9" y="339"/>
      <point x="10" y="309" type="curve"/>
      <point x="88" y="284"/>
      <point x="244" y="266"/>
      <point x="342" y="268" type="curve"/>
      <point x="357" y="302"/>
      <point x="364" y="346"/>
      <point x="364" y="392" type="curve"/>
      <point x="321" y="386"/>
      <point x="265" y="386"/>
      <point x="168" y="382" type="curve"/>
      <point x="179" y="358" type="line"/>
      <point x="325" y="420"/>
      <point x="389" y="498"/>
    </contour>
  </outline>
</glyph>
<glyph name="questiondown" format="1">
  <advance width="513"/>
  <unicode hex="00BF"/>
  <outline>
    <contour>
      <point x="264" y="178" type="line"/>
      <point x="119" y="163"/>
      <point x="25" y="93"/>
      <point x="25" y="-18" type="curve" smooth="yes"/>
      <point x="25" y="-131"/>
      <point x="142" y="-211"/>
      <point x="280" y="-211" type="curve" smooth="yes"/>
      <point x="447" y="-211"/>
      <point x="530" y="-129"/>
      <point x="538" y="5" type="curve"/>
      <point x="487" y="30"/>
      <point x="427" y="40"/>
      <point x="355" y="40" type="curve"/>
      <point x="355" y="-55"/>
      <point x="323" y="-107"/>
      <point x="286" y="-107" type="curve" smooth="yes"/>
      <point x="244" y="-107"/>
      <point x="234" y="-65"/>
      <point x="234" y="-19" type="curve" smooth="yes"/>
      <point x="234" y="62"/>
      <point x="284" y="125"/>
      <point x="393" y="144" type="curve"/>
    </contour>
    <contour>
      <point x="393" y="144" type="line"/>
      <point x="391" y="192"/>
      <point x="381" y="256"/>
      <point x="369" y="313" type="curve"/>
      <point x="318" y="313"/>
      <point x="258" y="308"/>
      <point x="223" y="298" type="curve"/>
      <point x="221.122042014" y="236.966365465"/>
      <point x="221" y="167"/>
      <point x="218" y="128" type="curve"/>
    </contour>
    <contour>
      <point x="188" y="564" type="curve"/>
      <point x="195" y="506"/>
      <point x="199" y="458"/>
      <point x="204" y="396" type="curve"/>
      <point x="266" y="396"/>
      <point x="308" y="394"/>
      <point x="379" y="394" type="curve"/>
      <point x="381" y="444"/>
      <point x="381" y="495"/>
      <point x="375" y="557" type="curve"/>
      <point x="353" y="568"/>
      <point x="318" y="576"/>
      <point x="277" y="575" type="curve" smooth="yes"/>
      <point x="246" y="574"/>
      <point x="222" y="572"/>
    </contour>
  </outline>
</glyph>
<glyph name="ae" format="1">
  <advance width="828"/>
  <unicode hex="00E6"/>
  <outline>
    <contour>
      <point x="295" y="528" type="curve" smooth="yes"/>
      <point x="175" y="528"/>
      <point x="77" y="467"/>
      <point x="54" y="402" type="curve"/>
      <point x="75" y="344"/>
      <point x="131" y="309"/>
      <point x="219" y="309" type="curve"/>
      <point x="221" y="382"/>
      <point x="250" y="424"/>
      <point x="279" y="424" type="curve" smooth="yes"/>
      <point x="314" y="424"/>
      <point x="324" y="376"/>
      <point x="326" y="301" type="curve" smooth="yes"/>
      <point x="327" y="283"/>
      <point x="327" y="264"/>
      <point x="327" y="244" type="curve"/>
      <point x="486" y="298" type="line"/>
      <point x="486" y="320"/>
      <point x="484" y="343"/>
      <point x="480" y="366" type="curve" smooth="yes"/>
      <point x="464" y="449"/>
      <point x="415" y="528"/>
    </contour>
    <contour>
      <point x="447" y="234" type="line"/>
      <point x="491" y="216"/>
      <point x="539" y="208"/>
      <point x="582" y="208" type="curve" smooth="yes"/>
      <point x="655" y="208"/>
      <point x="720" y="215"/>
      <point x="767" y="238" type="curve"/>
      <point x="781" y="277"/>
      <point x="790" y="334"/>
      <point x="790" y="375" type="curve" smooth="yes"/>
      <point x="790" y="466"/>
      <point x="717" y="531"/>
      <point x="616" y="531" type="curve" smooth="yes"/>
      <point x="455" y="531"/>
      <point x="320.0" y="370.0"/>
      <point x="320" y="176" type="curve" smooth="yes"/>
      <point x="320" y="52"/>
      <point x="406" y="-56"/>
      <point x="534" y="-56" type="curve" smooth="yes"/>
      <point x="703" y="-56"/>
      <point x="777" y="48"/>
      <point x="788" y="83" type="curve"/>
      <point x="754" y="118"/>
      <point x="696" y="148"/>
      <point x="646" y="157" type="curve"/>
      <point x="635" y="121"/>
      <point x="603" y="55"/>
      <point x="571" y="55" type="curve" smooth="yes"/>
      <point x="529" y="55"/>
      <point x="511" y="106"/>
      <point x="511" y="179" type="curve" smooth="yes"/>
      <point x="511" y="293"/>
      <point x="546" y="431"/>
      <point x="592" y="431" type="curve" smooth="yes"/>
      <point x="609" y="431"/>
      <point x="614" y="413"/>
      <point x="614" y="390" type="curve" smooth="yes"/>
      <point x="614" y="363"/>
      <point x="608" y="333"/>
      <point x="601" y="307" type="curve"/>
      <point x="596" y="306"/>
      <point x="578" y="305"/>
      <point x="568" y="305" type="curve" smooth="yes"/>
      <point x="542" y="305"/>
      <point x="498" y="315"/>
      <point x="456" y="338" type="curve"/>
    </contour>
    <contour>
      <point x="349" y="260" type="line"/>
      <point x="331" y="262"/>
      <point x="314" y="263"/>
      <point x="255" y="263" type="curve" smooth="yes"/>
      <point x="91" y="263"/>
      <point x="24" y="210"/>
      <point x="24" y="121" type="curve" smooth="yes"/>
      <point x="24" y="27"/>
      <point x="97" y="-32"/>
      <point x="207" y="-32" type="curve" smooth="yes"/>
      <point x="263" y="-32"/>
      <point x="325" y="-20"/>
      <point x="396" y="45" type="curve"/>
      <point x="405" y="133" type="line"/>
      <point x="363" y="87"/>
      <point x="301" y="59"/>
      <point x="270" y="59" type="curve" smooth="yes"/>
      <point x="239" y="59"/>
      <point x="223" y="76"/>
      <point x="223" y="107" type="curve" smooth="yes"/>
      <point x="223" y="154"/>
      <point x="258" y="179"/>
      <point x="349" y="179" type="curve"/>
    </contour>
  </outline>
</glyph>
<glyph name="eth" format="1">
  <advance width="599"/>
  <unicode hex="00F0"/>
  <outline>
    <contour>
      <point x="355" y="421" type="curve"/>
      <point x="367" y="527" type="line"/>
      <point x="356" y="533"/>
      <point x="323" y="538"/>
      <point x="302" y="538" type="curve" smooth="yes"/>
      <point x="134" y="538"/>
      <point x="30" y="410"/>
      <point x="30" y="216" type="curve" smooth="yes"/>
      <point x="30" y="83"/>
      <point x="81" y="-30"/>
      <point x="214" y="-30" type="curve" smooth="yes"/>
      <point x="302" y="-30"/>
      <point x="362" y="30"/>
      <point x="389" y="222" type="curve"/>
      <point x="341" y="273" type="line"/>
      <point x="328" y="149"/>
      <point x="300" y="109"/>
      <point x="276" y="109" type="curve" smooth="yes"/>
      <point x="244" y="109"/>
      <point x="225" y="153"/>
      <point x="225" y="240" type="curve" smooth="yes"/>
      <point x="225" y="375"/>
      <point x="267" y="429"/>
      <point x="314" y="429" type="curve" smooth="yes"/>
      <point x="331" y="429"/>
      <point x="343" y="425"/>
    </contour>
    <contour>
      <point x="314" y="478"/>
      <point x="332" y="129"/>
      <point x="370" y="-42" type="curve"/>
      <point x="421" y="-42"/>
      <point x="489" y="-32"/>
      <point x="524" y="-22" type="curve"/>
      <point x="522" y="24"/>
      <point x="521" y="58"/>
      <point x="521" y="99" type="curve" smooth="yes"/>
      <point x="521" y="306"/>
      <point x="524" y="598"/>
      <point x="542" y="719" type="curve"/>
      <point x="514" y="725"/>
      <point x="488" y="727"/>
      <point x="465" y="727" type="curve" smooth="yes"/>
      <point x="408" y="727"/>
      <point x="346" y="717"/>
      <point x="314" y="701" type="curve"/>
    </contour>
    <contour>
      <point x="222" y="642"/>
      <point x="222" y="592"/>
      <point x="225" y="567" type="curve"/>
      <point x="317" y="559"/>
      <point x="495" y="557"/>
      <point x="611" y="577" type="curve"/>
      <point x="614" y="609"/>
      <point x="613" y="643"/>
      <point x="611" y="671" type="curve"/>
      <point x="517" y="663"/>
      <point x="348" y="660"/>
      <point x="227" y="664" type="curve"/>
    </contour>
  </outline>
</glyph>
<glyph name="Eogonek" format="1">
  <advance width="609"/>
  <unicode hex="0118"/>
  <outline>
    <contour>
      <point x="579" y="-10" type="curve"/>
      <point x="579" y="38"/>
      <point x="571" y="115"/>
      <point x="560" y="145" type="curve"/>
      <point x="495" y="132"/>
      <point x="335" y="113"/>
      <point x="298" y="113" type="curve"/>
      <point x="291" y="190"/>
      <point x="288" y="278"/>
      <point x="288" y="362" type="curve" smooth="yes"/>
      <point x="288" y="489"/>
      <point x="295" y="608"/>
      <point x="306" y="674" type="curve"/>
      <point x="64" y="681" type="line"/>
      <point x="67" y="467"/>
      <point x="104" y="133"/>
      <point x="132" y="-43" type="curve"/>
      <point x="283" y="-43"/>
      <point x="544" y="-21"/>
    </contour>
    <contour>
      <point x="511" y="296" type="curve"/>
      <point x="511" y="359"/>
      <point x="507" y="406"/>
      <point x="495" y="455" type="curve"/>
      <point x="405" y="455"/>
      <point x="323" y="439"/>
      <point x="241" y="412" type="curve"/>
      <point x="250" y="278" type="line"/>
      <point x="335" y="290"/>
      <point x="426" y="296"/>
    </contour>
    <contour>
      <point x="535" y="570" type="curve"/>
      <point x="544" y="613"/>
      <point x="554" y="673"/>
      <point x="554" y="735" type="curve"/>
      <point x="380" y="735"/>
      <point x="226" y="712"/>
      <point x="64" y="681" type="curve"/>
      <point x="93" y="541" type="line"/>
      <point x="238" y="562"/>
      <point x="389" y="570"/>
    </contour>
    <contour>
      <point x="579" y="-10" type="curve"/>
      <point x="538" y="10" type="line"/>
      <point x="454" y="-35"/>
      <point x="407" y="-78"/>
      <point x="407" y="-138" type="curve"/>
      <point x="407" y="-192"/>
      <point x="446" y="-222"/>
      <point x="509" y="-222" type="curve" smooth="yes"/>
      <point x="564" y="-222"/>
      <point x="609" y="-198"/>
      <point x="637" y="-161" type="curve"/>
      <point x="628" y="-141"/>
      <point x="615" y="-117"/>
      <point x="599" y="-104" type="curve"/>
      <point x="581" y="-131"/>
      <point x="563" y="-143"/>
      <point x="543" y="-143" type="curve" smooth="yes"/>
      <point x="526" y="-143"/>
      <point x="516" y="-130"/>
      <point x="516" y="-110" type="curve" smooth="yes"/>
      <point x="516" y="-76"/>
      <point x="540" y="-35"/>
    </contour>
  </outline>
</glyph>
<glyph name="iogonek" format="1">
  <advance width="304"/>
  <unicode hex="012F"/>
  <outline>
    <contour>
      <point x="219" y="11" type="curve"/>
      <point x="227" y="251"/>
      <point x="253" y="448"/>
      <point x="280" y="529" type="curve"/>
      <point x="254" y="534"/>
      <point x="228" y="536"/>
      <point x="203" y="536" type="curve" smooth="yes"/>
      <point x="150" y="536"/>
      <point x="100" y="526"/>
      <point x="62" y="504" type="curve"/>
      <point x="35" y="358"/>
      <point x="33" y="177"/>
      <point x="53" y="-9" type="curve"/>
      <point x="65" y="-12"/>
      <point x="80" y="-13"/>
      <point x="98" y="-13" type="curve" smooth="yes"/>
      <point x="138" y="-13"/>
      <point x="188" y="-6"/>
    </contour>
    <contour>
      <point x="265" y="604" type="curve"/>
      <point x="272" y="644"/>
      <point x="289" y="708"/>
      <point x="301" y="737" type="curve"/>
      <point x="281" y="747"/>
      <point x="246" y="756"/>
      <point x="201" y="756" type="curve" smooth="yes"/>
      <point x="155" y="756"/>
      <point x="117" y="748"/>
      <point x="86" y="731" type="curve"/>
      <point x="81" y="715"/>
      <point x="80" y="697"/>
      <point x="80" y="681" type="curve" smooth="yes"/>
      <point x="80" y="649"/>
      <point x="86" y="619"/>
      <point x="94" y="594" type="curve"/>
      <point x="172" y="593"/>
      <point x="224" y="597"/>
    </contour>
    <contour>
      <point x="183" y="-2" type="curve"/>
      <point x="142" y="18" type="line"/>
      <point x="58" y="-27"/>
      <point x="11" y="-70"/>
      <point x="11" y="-135" type="curve" smooth="yes"/>
      <point x="11" y="-184"/>
      <point x="54" y="-214"/>
      <point x="117" y="-214" type="curve" smooth="yes"/>
      <point x="172" y="-214"/>
      <point x="213" y="-190"/>
      <point x="241" y="-153" type="curve"/>
      <point x="232" y="-133"/>
      <point x="219" y="-109"/>
      <point x="203" y="-96" type="curve"/>
      <point x="185" y="-123"/>
      <point x="167" y="-135"/>
      <point x="147" y="-135" type="curve" smooth="yes"/>
      <point x="130" y="-135"/>
      <point x="120" y="-122"/>
      <point x="120" y="-102" type="curve" smooth="yes"/>
      <point x="120" y="-68"/>
      <point x="144" y="-27"/>
    </contour>
  </outline>
</glyph>
<glyph name="oe" format="1">
  <advance width="822"/>
  <unicode hex="0153"/>
  <outline>
    <contour>
      <point x="268" y="413" type="curve" smooth="yes"/>
      <point x="236" y="413"/>
      <point x="213" y="342"/>
      <point x="213" y="236" type="curve" smooth="yes"/>
      <point x="213" y="168"/>
      <point x="228" y="80"/>
      <point x="265" y="80" type="curve" smooth="yes"/>
      <point x="307" y="80"/>
      <point x="318" y="188"/>
      <point x="318" y="262" type="curve" smooth="yes"/>
      <point x="318" y="371"/>
      <point x="301" y="413"/>
    </contour>
    <contour>
      <point x="419" y="79" type="line"/>
      <point x="361" y="4"/>
      <point x="302" y="-35"/>
      <point x="219" y="-35" type="curve"/>
      <point x="86" y="-35"/>
      <point x="18" y="68"/>
      <point x="18" y="208" type="curve" smooth="yes"/>
      <point x="18" y="391"/>
      <point x="134" y="528"/>
      <point x="297" y="528" type="curve" smooth="yes"/>
      <point x="388" y="528"/>
      <point x="462" y="476"/>
      <point x="501" y="379" type="curve"/>
      <point x="400" y="404" type="line"/>
      <point x="455" y="489"/>
      <point x="535" y="531"/>
      <point x="609" y="531" type="curve" smooth="yes"/>
      <point x="716" y="531"/>
      <point x="784" y="466"/>
      <point x="784" y="375" type="curve" smooth="yes"/>
      <point x="784" y="334"/>
      <point x="775" y="277"/>
      <point x="761" y="238" type="curve"/>
      <point x="714" y="215"/>
      <point x="649" y="208"/>
      <point x="576" y="208" type="curve" smooth="yes"/>
      <point x="533" y="208"/>
      <point x="485" y="216"/>
      <point x="441" y="234" type="curve"/>
      <point x="450" y="338" type="line"/>
      <point x="492" y="315"/>
      <point x="536" y="305"/>
      <point x="562" y="305" type="curve" smooth="yes"/>
      <point x="572" y="305"/>
      <point x="590" y="306"/>
      <point x="595" y="307" type="curve"/>
      <point x="602" y="333"/>
      <point x="608" y="363"/>
      <point x="608" y="390" type="curve" smooth="yes"/>
      <point x="608" y="413"/>
      <point x="603" y="431"/>
      <point x="586" y="431" type="curve" smooth="yes"/>
      <point x="540" y="431"/>
      <point x="505" y="293"/>
      <point x="505" y="179" type="curve" smooth="yes"/>
      <point x="505" y="106"/>
      <point x="523" y="55"/>
      <point x="565" y="55" type="curve" smooth="yes"/>
      <point x="597" y="55"/>
      <point x="629" y="121"/>
      <point x="640" y="157" type="curve"/>
      <point x="690" y="148"/>
      <point x="748" y="118"/>
      <point x="782" y="83" type="curve"/>
      <point x="763" y="22"/>
      <point x="656" y="-56"/>
      <point x="547" y="-56" type="curve" smooth="yes"/>
      <point x="431" y="-56"/>
      <point x="366" y="9"/>
      <point x="338" y="109" type="curve"/>
    </contour>
  </outline>
</glyph>
<glyph name="uogonek" format="1">
  <advance width="549"/>
  <unicode hex="0173"/>
  <outline>
    <contour>
      <point x="364" y="14" type="curve" smooth="yes"/>
      <point x="483" y="75"/>
      <point x="519.0" y="220.0"/>
      <point x="519.0" y="382.0" type="curve" smooth="yes"/>
      <point x="519.0" y="433.0"/>
      <point x="516.0" y="485.0"/>
      <point x="509.0" y="519.0" type="curve"/>
      <point x="452.0" y="519.0"/>
      <point x="365.0" y="509.0"/>
      <point x="306.0" y="484.0" type="curve"/>
      <point x="310.0" y="466.0"/>
      <point x="318.0" y="396.0"/>
      <point x="318.0" y="323.0" type="curve" smooth="yes"/>
      <point x="318.0" y="221.0"/>
      <point x="307.0" y="110.0"/>
      <point x="277.0" y="110.0" type="curve" smooth="yes"/>
      <point x="247.0" y="110.0"/>
      <point x="235.0" y="198.0"/>
      <point x="235.0" y="305.0" type="curve" smooth="yes"/>
      <point x="235.0" y="376.0"/>
      <point x="242.0" y="453.0"/>
      <point x="254.0" y="523.0" type="curve"/>
      <point x="239.0" y="532.0"/>
      <point x="210.0" y="538.0"/>
      <point x="166.0" y="538.0" type="curve" smooth="yes"/>
      <point x="131.0" y="538.0"/>
      <point x="96.0" y="531.0"/>
      <point x="76.0" y="526.0" type="curve"/>
      <point x="62.0" y="500.0"/>
      <point x="30.0" y="383.0"/>
      <point x="30.0" y="265.0" type="curve" smooth="yes"/>
      <point x="30.0" y="128.0"/>
      <point x="77" y="-10"/>
      <point x="246" y="-10" type="curve" smooth="yes"/>
      <point x="274" y="-10"/>
      <point x="294" y="-6"/>
      <point x="304" y="-1" type="curve"/>
      <point x="282" y="23" type="line"/>
      <point x="198" y="-22"/>
      <point x="151" y="-85"/>
      <point x="151" y="-135" type="curve" smooth="yes"/>
      <point x="151" y="-194"/>
      <point x="194" y="-224"/>
      <point x="257" y="-224" type="curve" smooth="yes"/>
      <point x="312" y="-224"/>
      <point x="353" y="-200"/>
      <point x="381" y="-163" type="curve"/>
      <point x="372" y="-143"/>
      <point x="359" y="-119"/>
      <point x="343" y="-106" type="curve"/>
      <point x="325" y="-133"/>
      <point x="307" y="-145"/>
      <point x="287" y="-145" type="curve" smooth="yes"/>
      <point x="270" y="-145"/>
      <point x="260" y="-132"/>
      <point x="260" y="-112" type="curve" smooth="yes"/>
      <point x="260" y="-75"/>
      <point x="292" y="-23"/>
    </contour>
  </outline>
</glyph>
<glyph name="breve" format="1">
  <advance width="260"/>
  <unicode hex="02D8"/>
  <outline>
    <contour>
      <point x="32" y="740"/>
      <point x="11" y="735"/>
      <point x="-6" y="729" type="curve"/>
      <point x="-8" y="683"/>
      <point x="0" y="651"/>
      <point x="16" y="631" type="curve" smooth="yes"/>
      <point x="42" y="599"/>
      <point x="81" y="587"/>
      <point x="127" y="587" type="curve" smooth="yes"/>
      <point x="182" y="587"/>
      <point x="231" y="610"/>
      <point x="252" y="654" type="curve" smooth="yes"/>
      <point x="265" y="681"/>
      <point x="268" y="704"/>
      <point x="267" y="738" type="curve"/>
      <point x="242" y="743"/>
      <point x="206" y="742"/>
      <point x="185" y="737" type="curve"/>
      <point x="195" y="698"/>
      <point x="180" y="675"/>
      <point x="128" y="675" type="curve" smooth="yes"/>
      <point x="76" y="675"/>
      <point x="67" y="701"/>
      <point x="71" y="740" type="curve"/>
    </contour>
    <contour>
      <point x="130" y="560" type="move" name="_top"/>
    </contour>
  </outline>
</glyph>
<glyph name="pi" format="1">
  <advance width="783.0"/>
  <unicode hex="03C0"/>
  <outline>
    <contour>
      <point x="709" y="392" type="curve"/>
      <point x="720" y="429"/>
      <point x="729" y="502"/>
      <point x="729" y="557" type="curve"/>
      <point x="601" y="574"/>
      <point x="217" y="595"/>
      <point x="47" y="595" type="curve"/>
      <point x="23.1403508772" y="550.087719298"/>
      <point x="7.13043478261" y="464.391304348"/>
      <point x="28" y="367" type="curve"/>
      <point x="116" y="380"/>
      <point x="400" y="395"/>
      <point x="548" y="395" type="curve" smooth="yes"/>
      <point x="589" y="395"/>
      <point x="663" y="394"/>
    </contour>
    <contour>
      <point x="595" y="6" type="curve" smooth="yes"/>
      <point x="741" y="6"/>
      <point x="765" y="134"/>
      <point x="765" y="178" type="curve"/>
      <point x="729" y="206"/>
      <point x="679" y="227"/>
      <point x="632" y="232" type="curve"/>
      <point x="630" y="154"/>
      <point x="619" y="118"/>
      <point x="608" y="118" type="curve" smooth="yes"/>
      <point x="584" y="118"/>
      <point x="582" y="181"/>
      <point x="582" y="261" type="curve" smooth="yes"/>
      <point x="582" y="322"/>
      <point x="589" y="392"/>
      <point x="599" y="455" type="curve"/>
      <point x="391" y="455" type="line"/>
      <point x="386" y="401"/>
      <point x="383" y="343"/>
      <point x="383" y="285" type="curve" smooth="yes"/>
      <point x="383" y="73"/>
      <point x="486" y="6"/>
    </contour>
    <contour>
      <point x="326" y="480" type="curve"/>
      <point x="159" y="495" type="line"/>
      <point x="160.909914773" y="433.882727255"/>
      <point x="158" y="381"/>
      <point x="146" y="282" type="curve" smooth="yes"/>
      <point x="134" y="184"/>
      <point x="120" y="124"/>
      <point x="88" y="11" type="curve"/>
      <point x="157" y="-9"/>
      <point x="256.665256079" y="-9.88947663375"/>
      <point x="302" y="9" type="curve"/>
      <point x="319" y="111"/>
      <point x="327.998574128" y="193.927993453"/>
      <point x="330" y="295" type="curve" smooth="yes"/>
      <point x="331.001773156" y="360.115255129"/>
      <point x="331" y="416"/>
    </contour>
  </outline>
</glyph>
<glyph name="quotesinglbase" format="1">
  <advance width="249"/>
  <unicode hex="201A"/>
  <outline>
    <contour>
      <point x="229" y="122" type="curve"/>
      <point x="174" y="137"/>
      <point x="108" y="141"/>
      <point x="56" y="136" type="curve"/>
      <point x="60" y="65"/>
      <point x="53" y="-10"/>
      <point x="35" y="-102" type="curve"/>
      <point x="71" y="-112"/>
      <point x="120" y="-119"/>
      <point x="171" y="-120" type="curve"/>
      <point x="212" y="-18"/>
      <point x="227" y="39"/>
    </contour>
  </outline>
</glyph>
<glyph name="foursuperior" format="1">
  <advance width="455"/>
  <unicode hex="2074"/>
  <outline>
    <contour>
      <point x="422" y="298" type="curve"/>
      <point x="440" y="323"/>
      <point x="450" y="370"/>
      <point x="450" y="404" type="curve"/>
      <point x="384" y="411"/>
      <point x="276" y="422"/>
      <point x="168" y="440" type="curve"/>
      <point x="181" y="422" type="line"/>
      <point x="238" y="522"/>
      <point x="273" y="599"/>
      <point x="308" y="691" type="curve"/>
      <point x="277" y="702"/>
      <point x="219" y="723"/>
      <point x="157" y="722" type="curve"/>
      <point x="113" y="583"/>
      <point x="73" y="504"/>
      <point x="3" y="392" type="curve"/>
      <point x="8" y="367"/>
      <point x="10" y="348"/>
      <point x="17" y="330" type="curve"/>
      <point x="78" y="326"/>
      <point x="366" y="300"/>
    </contour>
    <contour>
      <point x="360" y="228" type="curve"/>
      <point x="374" y="359"/>
      <point x="404" y="471"/>
      <point x="419" y="503" type="curve"/>
      <point x="396" y="508"/>
      <point x="369" y="512"/>
      <point x="348" y="512" type="curve" smooth="yes"/>
      <point x="298" y="512"/>
      <point x="268" y="504"/>
      <point x="245" y="492" type="curve"/>
      <point x="234" y="450"/>
      <point x="225" y="340"/>
      <point x="225" y="272" type="curve" smooth="yes"/>
      <point x="225" y="252"/>
      <point x="225" y="232"/>
      <point x="227" y="217" type="curve"/>
      <point x="241" y="214"/>
      <point x="252" y="212"/>
      <point x="274" y="213" type="curve" smooth="yes"/>
      <point x="313" y="213"/>
      <point x="341" y="219"/>
    </contour>
  </outline>
</glyph>
<glyph name="minus" format="1">
  <advance width="501"/>
  <unicode hex="2212"/>
  <outline>
    <contour>
      <point x="39" y="394" type="curve"/>
      <point x="33" y="350"/>
      <point x="31" y="316"/>
      <point x="31" y="273" type="curve"/>
      <point x="146" y="255"/>
      <point x="322" y="252"/>
      <point x="453" y="273" type="curve"/>
      <point x="464" y="311"/>
      <point x="470" y="351"/>
      <point x="470" y="393" type="curve"/>
      <point x="322" y="377"/>
      <point x="177" y="376"/>
    </contour>
  </outline>
</glyph>
<glyph name="integral" format="1">
  <advance width="474"/>
  <unicode hex="222B"/>
  <outline>
    <contour>
      <point x="99" y="-156" type="curve" smooth="yes"/>
      <point x="-13" y="-156"/>
      <point x="-60" y="-85"/>
      <point x="-60" y="-13" type="curve" smooth="yes"/>
      <point x="-60" y="4"/>
      <point x="-57" y="22"/>
      <point x="-51" y="37" type="curve"/>
      <point x="0" y="37"/>
      <point x="50" y="27"/>
      <point x="91" y="16" type="curve"/>
      <point x="87" y="5"/>
      <point x="86" y="-6"/>
      <point x="86" y="-15" type="curve" smooth="yes"/>
      <point x="86" y="-36"/>
      <point x="95" y="-45"/>
      <point x="115" y="-45" type="curve" smooth="yes"/>
      <point x="143" y="-45"/>
      <point x="153" y="-12"/>
      <point x="153" y="31" type="curve" smooth="yes"/>
      <point x="153" y="216"/>
      <point x="84" y="287"/>
      <point x="77" y="444" type="curve" smooth="yes"/>
      <point x="69" y="618"/>
      <point x="172" y="721"/>
      <point x="296" y="725" type="curve" smooth="yes"/>
      <point x="412" y="728"/>
      <point x="462" y="659"/>
      <point x="464" y="587" type="curve" smooth="yes"/>
      <point x="464" y="570"/>
      <point x="462" y="552"/>
      <point x="456" y="536" type="curve"/>
      <point x="405" y="535"/>
      <point x="355" y="544"/>
      <point x="314" y="553" type="curve"/>
      <point x="317" y="564"/>
      <point x="318" y="576"/>
      <point x="318" y="585" type="curve" smooth="yes"/>
      <point x="317" y="605"/>
      <point x="307" y="614"/>
      <point x="292" y="614" type="curve" smooth="yes"/>
      <point x="262" y="613"/>
      <point x="256" y="565"/>
      <point x="258" y="501" type="curve" smooth="yes"/>
      <point x="262" y="340"/>
      <point x="357" y="208"/>
      <point x="302" y="3" type="curve" smooth="yes"/>
      <point x="274" y="-105"/>
      <point x="198" y="-156"/>
    </contour>
  </outline>
</glyph>
<glyph name="commaaccent" format="1">
  <advance width="261"/>
  <unicode hex="F6C3"/>
  <outline>
    <contour>
      <point x="207" y="-98" type="curve"/>
      <point x="160" y="-94"/>
      <point x="133" y="-96"/>
      <point x="77" y="-103" type="curve"/>
      <point x="78" y="-166"/>
      <point x="74" y="-215"/>
      <point x="54" y="-281" type="curve"/>
      <point x="86" y="-291"/>
      <point x="121" y="-293"/>
      <point x="165" y="-292" type="curve"/>
      <point x="192" y="-232"/>
      <point x="204" y="-165"/>
    </contour>
  </outline>
</glyph>
